# xmcd
#
# Track frame offsets:
#	150
#	24908
#	45773
#	62317
#	82496
#	101727
#	117461
#	133878
#	150651
#	165783
#	182951
#
# Disc length: 2757 seconds
#
# Revision: 2
# Processed by: cddbd v1.5.2PL0 Copyright (c) Steve Scherf et al.
# Submitted via: audiograbber 1.83.01
#
DISCID=860ac30b
DTITLE=Lianne La Havas - Blood
DYEAR=2015
DGENRE=
TTITLE0=Unstoppable
TTITLE1=Green and Gold
TTITLE2=What You Don't Do
TTITLE3=Tokyo
TTITLE4=Wonderful
TTITLE5=Midnight
TTITLE6=Grow
TTITLE7=Ghost
TTITLE8=Never Get Enough
TTITLE9=Good Goodbye
TTITLE10=Unstoppable (FKJ Remix)
EXTD=
EXTT0=
EXTT1=
EXTT2=
EXTT3=
EXTT4=
EXTT5=
EXTT6=
EXTT7=
EXTT8=
EXTT9=
EXTT10=
PLAYORDER=
